# xmcd
#
# Track frame offsets:
#	150
#	16435
#	30952
#	47436
#	62373
#	76705
#	93088
#	106567
#	125118
#	140112
#	156940
#	171782
#	186548
#
# Disc length: 2707 seconds
#
# Revision: 0
# Processed by: cddbd v1.5.1PL0 Copyright (c) Steve Scherf et al.
# Submitted via: EasyCDDAExtractor 8.0.1.1
#
DISCID=9b0a910d
DTITLE=Various Artist - New Ol' Soul
DYEAR=2005
DGENRE=Blues
TTITLE0=Holiday Band - Motown Here Today
TTITLE1=Holiday Band, Pam Russell and Gary Bass - When I Think About Love
TTITLE2=Holiday Band - Three In One
TTITLE3=Holiday Band - Give Me Just A Little More Time
TTITLE4=Holiday Band - Too Late To Turn Back Now
TTITLE5=Holiday Band - You Can Count On Me
TTITLE6=Holiday Band - Stubborn Kind Of Fellow
TTITLE7=Holiday Band - Stormy
TTITLE8=Holiday Band - Love Thang
TTITLE9=Holiday Band - I Believe In You And Me
TTITLE10=Holiday Band - Bop
TTITLE11=Holiday Band - It's You
TTITLE12=Holiday Band - La Di Da
EXTD=
EXTT0=
EXTT1=
EXTT2=
EXTT3=
EXTT4=
EXTT5=
EXTT6=
EXTT7=
EXTT8=
EXTT9=
EXTT10=
EXTT11=
EXTT12=
PLAYORDER=
